<svg id="tobisuke" xmlns="http://www.w3.org/2000/svg" viewBox="0 0 520 520"><defs><style>.cls-1{fill:#ffe500;stroke:#231815;stroke-miterlimit:10;stroke-width:5px;}.cls-2,.cls-5{fill:#231815;}.cls-3{fill:#3e3a39;}.cls-4{fill:#e4007f;}.cls-5{opacity:0.7;}.cls-6{fill:#e71f19;}</style></defs><title>tobisuke</title><path class="cls-1" d="M478.64,135c-29.89,0-127.9,63.29-127.9,63.29s12.14-68.78-24-121.53c20.89,3.22,42.7,3.87,44.12-3.4,2.64-13.52-9.56-19.78-9.56-19.78s20.77-8.24,19.12-20.77-17.8-19.12-46-10.22c-14.82,4.68-28.58,14.55-37.35,23.87-21.91-15.7-52.22-26.75-94-28.82-19.78,0-219.32,0-155,228.6C-10.61,373.27,46.15,472.07,179.77,494s261.07-9.67,306.78-136.25C518.57,229.46,508.53,135,478.64,135Z"/><ellipse class="cls-2" cx="92.81" cy="86.42" rx="19.78" ry="13.19" transform="translate(-16.7 150.37) rotate(-73.24)"/><ellipse class="cls-2" cx="225.48" cy="147.02" rx="19.78" ry="13.19" transform="translate(19.69 320.53) rotate(-73.24)"/><rect class="cls-2" x="107.42" y="41.26" width="7.6" height="45.06" rx="2.88" ry="2.88" transform="translate(-14.95 86.59) rotate(-40.08)"/><rect class="cls-2" x="198" y="103.53" width="64.01" height="10.13" rx="2.88" ry="2.88" transform="translate(-15.37 41.62) rotate(-10.01)"/><path class="cls-3" d="M20.66,165.92c25.49,30.35,125.86,53.1,161.78,42.66,32-15.93-38.94-81.09-56.45-88.28C117.86,120.3,17.47,131,20.66,165.92Z"/><path class="cls-4" d="M19.77,155.85c12.12,28.39,151.2,58.66,167.91,44.6s-48.35-82.3-69.44-82.3S16.73,144.44,19.77,155.85Z"/><path class="cls-5" d="M410.07,299.91s11.87-19.25,4.4-41.44-70.65-30.88-128.67,4.07S230,362.45,230,362.45l7.19,6s5.72-59.78,49.59-79.88S377.44,271.1,387,297.8s-56.26,64-54.39,69.22,48.9-15.31,54.39-4.58-12.21,55-81.53,63c67,17,107.9-35.71,122.19-67.69S410.07,299.91,410.07,299.91Z"/><path class="cls-6" d="M120,245c-8.32,2.9-25.4,9.25-25.68,9.32a18.41,18.41,0,0,0-25.5-7.94c-5.56-6.41-10.93-13-16.22-19.6-3.38-4.24-19.89-15.6-25.77,1.53-3.55,12.27-6.85,24.61-10.26,36.92-5.39,20.08,15.06,17.41,21.46,15.06,7.93-2.91,15.86-5.84,23.85-8.59A18.37,18.37,0,0,0,87.73,278q8.61,10.09,16.82,20.52c11.17,11.17,24.62,4,26.82-3.94,1.5-5.42,7.66-28.1,9.35-34C141.76,256.94,140.21,237.26,120,245Z"/></svg>